{
  "accessors": [
    {
      "bufferView": 2,
      "componentType": 5126,
      "count": 3122,
      "max": [
        0.72185194492340088,
        0.82675015926361084,
        1.1279823780059814
      ],
      "min": [
        -0.72185194492340088,
        -0.82675015926361084,
        -1.1279823780059814
      ],
      "type": "VEC3"
    },
    {
      "bufferView": 2,
      "byteOffset": 37464,
      "componentType": 5126,
      "count": 3122,
      "max": [
        0.99934947490692139,
        0.99999773502349854,
        0.99995112419128418
      ],
      "min": [
        -0.99998354911804199,
        -0.99999302625656128,
        -0.99999994039535522
      ],
      "type": "VEC3"
    },
    {
      "bufferView": 3,
      "componentType": 5126,
      "count": 3122,
      "max": [
        0.99999934434890747,
        0.9999997615814209,
        0.99327176809310913,
        1
      ],
      "min": [
        -0.99996477365493774,
        -1,
        -0.99994170665740967,
        -1
      ],
      "type": "VEC4"
    },
    {
      "bufferView": 1,
      "componentType": 5126,
      "count": 3122,
      "max": [
        0.99939137697219849,
        0.99873989820480347
      ],
      "min": [
        0.0011509866453707218,
        0.00037391239311546087
      ],
      "type": "VEC2"
    },
    {
      "bufferView": 0,
      "componentType": 5125,
      "count": 4680,
      "max": [
        3121
      ],
      "min": [
        0
      ],
      "type": "SCALAR"
    }
  ],
  "asset": {
    "extras": {
      "author": "A18K (https://sketchfab.com/A18K)",
      "license": "CC-BY-4.0 (http://creativecommons.org/licenses/by/4.0/)",
      "source": "https://sketchfab.com/3d-models/old-chair-6e35f6fdf1264db4880049b802f18ea2",
      "title": "Old Chair"
    },
    "generator": "Sketchfab-8.66.1",
    "version": "2.0"
  },
  "bufferViews": [
    {
      "buffer": 0,
      "byteLength": 18720,
      "byteOffset": 0,
      "name": "floatBufferViews",
      "target": 34963
    },
    {
      "buffer": 0,
      "byteLength": 24976,
      "byteOffset": 18720,
      "byteStride": 8,
      "name": "floatBufferViews",
      "target": 34962
    },
    {
      "buffer": 0,
      "byteLength": 74928,
      "byteOffset": 43696,
      "byteStride": 12,
      "name": "floatBufferViews",
      "target": 34962
    },
    {
      "buffer": 0,
      "byteLength": 49952,
      "byteOffset": 118624,
      "byteStride": 16,
      "name": "floatBufferViews",
      "target": 34962
    }
  ],
  "buffers": [
    {
      "byteLength": 168576,
      "uri": "scene.bin"
    }
  ],
  "images": [
    {
      "uri": "textures/Material.1257565_baseColor.png"
    },
    {
      "uri": "textures/Material.1257565_normal.png"
    }
  ],
  "materials": [
    {
      "doubleSided": true,
      "name": "Material.1257565",
      "normalTexture": {
        "index": 1,
        "scale": 1,
        "texCoord": 0
      },
      "pbrMetallicRoughness": {
        "baseColorFactor": [
          1,
          1,
          1,
          1
        ],
        "baseColorTexture": {
          "index": 0,
          "texCoord": 0
        },
        "metallicFactor": 1,
        "roughnessFactor": 0.90708735384783756
      }
    }
  ],
  "meshes": [
    {
      "name": "Cube.1629_Material.1257565_0",
      "primitives": [
        {
          "attributes": {
            "NORMAL": 1,
            "POSITION": 0,
            "TANGENT": 2,
            "TEXCOORD_0": 3
          },
          "indices": 4,
          "material": 0,
          "mode": 4
        }
      ]
    }
  ],
  "nodes": [
    {
      "children": [
        1
      ],
      "name": "RootNode (gltf orientation matrix)",
      "rotation": [
        -0.70710678118654746,
        -0,
        -0,
        0.70710678118654757
      ]
    },
    {
      "children": [
        2
      ],
      "matrix": [
        0.0057051959447562695,
        0,
        0,
        0,
        0,
        0.0057051959447562695,
        0,
        0,
        0,
        0,
        0.0057051959447562695,
        0,
        0,
        0,
        0,
        1
      ],
      "name": "RootNode (model correction matrix)"
    },
    {
      "children": [
        3
      ],
      "matrix": [
        1,
        0,
        0,
        0,
        0,
        0,
        1,
        0,
        0,
        -1,
        0,
        0,
        0,
        0,
        0,
        1
      ],
      "name": "fdaf9a8c16df484cb651e93cdb8837f1.fbx"
    },
    {
      "children": [
        4
      ],
      "name": "RootNode"
    },
    {
      "children": [
        5
      ],
      "matrix": [
        100,
        0,
        0,
        0,
        0,
        -1.6292067939183141e-05,
        -99.999999999998678,
        0,
        0,
        99.999999999998678,
        -1.6292067939183141e-05,
        0,
        0,
        0,
        0,
        1
      ],
      "name": "Cube.1629"
    },
    {
      "mesh": 0,
      "name": "Cube.1629_Material.1257565_0"
    }
  ],
  "samplers": [
    {
      "magFilter": 9729,
      "minFilter": 9987,
      "wrapS": 10497,
      "wrapT": 10497
    }
  ],
  "scene": 0,
  "scenes": [
    {
      "name": "OSG_Scene",
      "nodes": [
        0
      ]
    }
  ],
  "textures": [
    {
      "sampler": 0,
      "source": 0
    },
    {
      "sampler": 0,
      "source": 1
    }
  ]
}

